<svg width="22" height="22" viewBox="0 0 22 22" fill="none" xmlns="http://www.w3.org/2000/svg">
<g clip-path="url(#clip0_1_288)">
<path d="M10.9998 8.99997V13.26H16.9198C16.6598 14.63 15.8797 15.79 14.7098 16.57L18.2798 19.34C20.3597 17.4201 21.5598 14.6001 21.5598 11.2501C21.5598 10.4701 21.4898 9.72002 21.3597 9.00009L10.9998 8.99997Z" fill="#4285F4"/>
<path d="M4.83514 13.0937L4.02998 13.71L1.17993 15.93C2.98993 19.52 6.69965 22 10.9996 22C13.9695 22 16.4595 21.02 18.2796 19.34L14.7096 16.57C13.7296 17.23 12.4796 17.63 10.9996 17.63C8.13963 17.63 5.7097 15.7001 4.83964 13.1L4.83514 13.0937Z" fill="#34A853"/>
<path d="M1.17991 6.07C0.429955 7.54994 0 9.21996 0 10.9999C0 12.7799 0.429955 14.4499 1.17991 15.9299C1.17991 15.9398 4.83998 13.0899 4.83998 13.0899C4.61998 12.4299 4.48994 11.7299 4.48994 10.9998C4.48994 10.2697 4.61998 9.56977 4.83998 8.90977L1.17991 6.07Z" fill="#FBBC05"/>
<path d="M10.9998 4.38C12.6199 4.38 14.0598 4.93998 15.2098 6.02L18.3598 2.87004C16.4498 1.09007 13.9699 0 10.9998 0C6.69988 0 2.98993 2.47 1.17993 6.07001L4.83988 8.91001C5.70983 6.30998 8.13986 4.38 10.9998 4.38Z" fill="#EA4335"/>
</g>
<defs>
<clipPath id="clip0_1_288">
<rect width="22" height="22" fill="white"/>
</clipPath>
</defs>
</svg>
