<svg width="504" height="221" viewBox="0 0 504 221" fill="none" xmlns="http://www.w3.org/2000/svg">
<path d="M21.625 6.75C20.5625 6.79167 19.9375 7.04167 19.75 7.5C19.5625 7.9375 19.6979 8.72917 20.1562 9.875L29.7812 33.5625L33.5938 23.3125L28.2188 9.8125C27.7604 8.70833 27.1979 7.94792 26.5312 7.53125C25.8646 7.09375 24.8125 6.83333 23.375 6.75C22.8542 5.41667 22.8542 4.17708 23.375 3.03125H45.4375C45.9583 4.17708 45.9583 5.41667 45.4375 6.75C43.1875 6.83333 41.7188 7.14583 41.0312 7.6875C40.3438 8.20833 40.1771 8.9375 40.5312 9.875L49.4688 33.375L58.25 9.875C58.6667 8.72917 58.5208 7.96875 57.8125 7.59375C57.125 7.19792 55.7292 6.91667 53.625 6.75C53.125 5.41667 53.125 4.17708 53.625 3.03125H72.1875C72.7083 4.17708 72.7083 5.41667 72.1875 6.75C69.0417 6.95833 67.0208 7.27083 66.125 7.6875C65.1875 8.16667 64.5208 8.89583 64.125 9.875L48.125 52.1875H44.9375L36.5625 30.5938L28.4062 52.1875H25.2812L7.8125 9.875C7.39583 8.85417 6.65625 8.13542 5.59375 7.71875C4.55208 7.28125 2.98958 6.95833 0.90625 6.75C0.385417 5.41667 0.385417 4.17708 0.90625 3.03125H21.625C22.1458 4.17708 22.1458 5.41667 21.625 6.75ZM20.5625 4.0625H2C1.72917 4.47917 1.72917 4.96875 2 5.53125C5.75 5.90625 8.07292 7.1875 8.96875 9.375L26.125 50.9062H27.5312L36.4062 27.0938L45.8438 50.9062H47.25L63.125 8.96875C63.5833 7.78125 64.4167 6.95833 65.625 6.5C66.8542 6.02083 68.5938 5.69792 70.8438 5.53125C71.1146 4.96875 71.1146 4.47917 70.8438 4.0625H54.9688C54.7188 4.47917 54.7188 4.96875 54.9688 5.53125C57.4479 5.82292 58.9688 6.20833 59.5312 6.6875C60.2188 7.22917 60.3646 7.98958 59.9688 8.96875L47.8125 41.6875L35.4688 9.375C34.9896 8.25 35.4792 7.375 36.9375 6.75C38.3958 6.10417 40.7812 5.69792 44.0938 5.53125C44.3646 4.96875 44.3646 4.47917 44.0938 4.0625H24.4688C24.1979 4.47917 24.1979 4.96875 24.4688 5.53125C25.7812 5.65625 26.8125 6 27.5625 6.5625C28.3125 7.10417 28.9375 8.04167 29.4375 9.375L34.9375 23.3125L28.0938 41.6875L14.9688 9.375C14.2604 7.95833 14.3333 7.02083 15.1875 6.5625C16.0417 6.08333 17.8333 5.73958 20.5625 5.53125C20.8125 4.96875 20.8125 4.47917 20.5625 4.0625ZM88.7812 23.625C90.4479 23.625 91.6562 24.1667 92.4062 25.25C93.1562 26.3125 93.5312 27.6458 93.5312 29.25C93.5312 29.8542 93.4271 30.5417 93.2188 31.3125H81.0312C81.6771 28.7083 82.7188 26.7812 84.1562 25.5312C85.6146 24.2604 87.1562 23.625 88.7812 23.625ZM80.7188 33.4375H97.75C98.0833 32.3958 98.25 31.3229 98.25 30.2188C98.25 27.7812 97.5521 25.7396 96.1562 24.0938C94.7812 22.4271 92.5833 21.5938 89.5625 21.5938C85.625 21.5938 82.3125 23.0208 79.625 25.875C76.9375 28.7292 75.5938 32.3542 75.5938 36.75C75.5938 41.4375 76.875 44.9688 79.4375 47.3438C82 49.7188 85.0104 50.9062 88.4688 50.9062C91.0312 50.9062 93.4062 50.2188 95.5938 48.8438C97.8021 47.4479 99.4167 45.3542 100.438 42.5625C100.146 42.2292 99.7396 42 99.2188 41.875C99.1354 42 98.8854 42.3438 98.4688 42.9062C98.0729 43.4479 97.7812 43.8438 97.5938 44.0938C97.4062 44.3229 97.0625 44.6667 96.5625 45.125C96.0833 45.5625 95.6146 45.8854 95.1562 46.0938C94.7188 46.3021 94.1562 46.5104 93.4688 46.7188C92.7812 46.9062 92.0312 47 91.2188 47C88.0104 47 85.4583 46.0521 83.5625 44.1562C81.6667 42.2396 80.6771 39.6667 80.5938 36.4375C80.5938 35.7083 80.6354 34.7083 80.7188 33.4375ZM98.7188 40.4062C100.031 40.6979 101.094 41.3542 101.906 42.375C100.719 45.625 98.8854 48.0729 96.4062 49.7188C93.9271 51.3646 91.2812 52.1875 88.4688 52.1875C84.6354 52.1875 81.3125 50.8958 78.5 48.3125C75.7083 45.7292 74.3125 41.875 74.3125 36.75C74.3125 32.1042 75.7396 28.2083 78.5938 25.0625C81.4688 21.8958 85.5312 20.3125 90.7812 20.3125C98.7188 20.3125 102.688 23.6146 102.688 30.2188C102.688 31.5104 102.385 33.0104 101.781 34.7188H85V36.75C85.1042 39.2708 85.7917 41.3229 87.0625 42.9062C88.3333 44.4688 90.0833 45.3854 92.3125 45.6562C93.625 45.5312 94.7083 45.0833 95.5625 44.3125C96.4167 43.5417 97.4688 42.2396 98.7188 40.4062ZM92.25 29.25C92.25 26.9583 91.4792 25.5729 89.9375 25.0938C88.1042 25.6562 86.7396 27.3021 85.8438 30.0312H92.1875C92.1875 29.9479 92.1979 29.8229 92.2188 29.6562C92.2396 29.4896 92.25 29.3542 92.25 29.25ZM126.688 48.5625C121.729 48.1042 119.229 47.1042 119.188 45.5625C118.979 34.0208 118.896 19.9479 118.938 3.34375C118.771 3.01042 118.406 2.72917 117.844 2.5C114.948 3.875 111.938 4.72917 108.812 5.0625C108.688 5.58333 108.688 6.07292 108.812 6.53125C111.167 6.67708 112.958 7.10417 114.188 7.8125C114.354 23.4792 114.333 36.0625 114.125 45.5625C114.083 47.1042 112.312 48.1042 108.812 48.5625C108.604 49.0833 108.604 49.5938 108.812 50.0938C113.646 49.9271 119.604 49.9271 126.688 50.0938C126.896 49.5938 126.896 49.0833 126.688 48.5625ZM127.812 47.4062C128.167 48.6979 128.167 49.9583 127.812 51.1875C119.792 51.0208 113.073 51.0208 107.656 51.1875C107.323 49.9583 107.323 48.6979 107.656 47.4062C111.073 47.0729 112.802 46.4375 112.844 45.5C113.094 33.2708 113.115 20.9688 112.906 8.59375C111.51 8.15625 109.76 7.875 107.656 7.75C107.198 6.52083 107.198 5.19792 107.656 3.78125C110.823 3.61458 114.365 2.67708 118.281 0.96875C120.552 1.13542 122.24 1.82292 123.344 3.03125C123.26 21.5938 123.344 35.75 123.594 45.5C123.635 46.4375 125.042 47.0729 127.812 47.4062ZM156.5 28.3125C156.5 29.5833 155.969 30.375 154.906 30.6875C154.615 31.2292 154.615 31.7188 154.906 32.1562C155.969 32.1562 156.865 31.7917 157.594 31.0625C158.323 30.3333 158.688 29.4167 158.688 28.3125C158.688 26.3542 157.771 24.75 155.938 23.5C154.104 22.2292 151.708 21.5938 148.75 21.5938C144.625 21.5938 141.167 22.9896 138.375 25.7812C135.604 28.5729 134.219 32.2292 134.219 36.75C134.219 41.4375 135.51 44.9688 138.094 47.3438C140.677 49.7188 143.719 50.9062 147.219 50.9062C149.781 50.9062 152.156 50.2188 154.344 48.8438C156.552 47.4479 158.167 45.3542 159.188 42.5625C158.896 42.2292 158.49 42 157.969 41.875C157.427 42.6458 156.979 43.2188 156.625 43.5938C156.292 43.9479 155.74 44.4583 154.969 45.125C154.198 45.7708 153.333 46.25 152.375 46.5625C151.417 46.8542 150.365 47 149.219 47C145.969 47 143.583 46.0521 142.062 44.1562C140.562 42.2396 139.812 39.7708 139.812 36.75C139.812 28 142.792 23.625 148.75 23.625C151.146 23.625 153.031 24.0208 154.406 24.8125C155.802 25.6042 156.5 26.7708 156.5 28.3125ZM157.406 40.6562C158.802 40.8229 159.885 41.3958 160.656 42.375C159.469 45.625 157.635 48.0729 155.156 49.7188C152.677 51.3646 150.031 52.1875 147.219 52.1875C143.427 52.1875 140.094 50.8958 137.219 48.3125C134.365 45.7292 132.938 41.875 132.938 36.75C132.938 31.8542 134.438 27.8958 137.438 24.875C140.458 21.8333 144.229 20.3125 148.75 20.3125C152.083 20.3125 154.781 21.0625 156.844 22.5625C158.927 24.0417 159.969 25.9583 159.969 28.3125C159.969 29.75 159.479 30.8958 158.5 31.75C157.542 32.6042 156.344 33.0312 154.906 33.0312C152.302 33.0312 151 31.8854 151 29.5938C151 28.1354 151.896 27.0833 153.688 26.4375C152.5 25.625 151.26 25.1562 149.969 25.0312C146.135 25.5938 144.219 29.5 144.219 36.75C144.219 42.2083 146.24 45.1771 150.281 45.6562C152.719 45.3438 155.094 43.6771 157.406 40.6562ZM181.719 23.625C183.865 23.625 185.562 24.6562 186.812 26.7188C188.083 28.7604 188.719 31.9375 188.719 36.25C188.719 40.5625 188.083 43.7396 186.812 45.7812C185.562 47.8229 183.865 48.8438 181.719 48.8438C180.531 48.8438 179.448 48.5938 178.469 48.0938C177.51 47.5938 176.688 46.8229 176 45.7812C175.333 44.7396 174.812 43.4375 174.438 41.875C174.062 40.2917 173.875 38.4167 173.875 36.25C173.875 34.1042 174.062 32.2396 174.438 30.6562C174.812 29.0521 175.333 27.7396 176 26.7188C176.688 25.6771 177.51 24.9062 178.469 24.4062C179.448 23.8854 180.531 23.625 181.719 23.625ZM181.719 50.9062C183.656 50.9062 185.396 50.5417 186.938 49.8125C188.479 49.0833 189.792 48.0729 190.875 46.7812C191.979 45.4688 192.823 43.9167 193.406 42.125C193.99 40.3333 194.281 38.375 194.281 36.25C194.281 34.125 193.99 32.1667 193.406 30.375C192.823 28.5833 191.979 27.0417 190.875 25.75C189.792 24.4375 188.479 23.4167 186.938 22.6875C185.396 21.9583 183.656 21.5938 181.719 21.5938C179.656 21.5938 177.792 21.9583 176.125 22.6875C174.458 23.4167 173.042 24.4271 171.875 25.7188C170.729 27.0104 169.844 28.5625 169.219 30.375C168.594 32.1667 168.281 34.125 168.281 36.25C168.281 38.3958 168.594 40.3646 169.219 42.1562C169.844 43.9479 170.729 45.5 171.875 46.8125C173.042 48.1042 174.458 49.1146 176.125 49.8438C177.792 50.5521 179.656 50.9062 181.719 50.9062ZM182.812 20.3125C185.333 20.3125 187.573 20.6979 189.531 21.4688C191.51 22.2396 193.177 23.3333 194.531 24.75C195.885 26.1458 196.917 27.8229 197.625 29.7812C198.333 31.7396 198.688 33.8958 198.688 36.25C198.688 38.5833 198.333 40.7292 197.625 42.6875C196.917 44.6458 195.885 46.3333 194.531 47.75C193.198 49.1458 191.542 50.2292 189.562 51C187.583 51.7917 185.333 52.1875 182.812 52.1875C180.312 52.1875 178.073 51.7917 176.094 51C174.135 50.2292 172.479 49.1458 171.125 47.75C169.792 46.3333 168.771 44.6562 168.062 42.7188C167.354 40.7604 167 38.6042 167 36.25C167 33.8958 167.354 31.7396 168.062 29.7812C168.771 27.8229 169.802 26.1458 171.156 24.75C172.51 23.3333 174.167 22.2396 176.125 21.4688C178.083 20.6979 180.312 20.3125 182.812 20.3125ZM178.281 36.25C178.281 42.9792 179.792 46.7083 182.812 47.4375C185.896 46.7083 187.438 42.9792 187.438 36.25C187.438 29.5833 185.896 25.8438 182.812 25.0312C179.792 25.8438 178.281 29.5833 178.281 36.25ZM237.125 30.0938C237.125 36.1146 237.24 41.2708 237.469 45.5625C237.51 46.6667 238.208 47.2812 239.562 47.4062C240.083 48.6979 240.083 49.9583 239.562 51.1875C234.229 51.0625 228.875 51.0625 223.5 51.1875C223 49.9583 223 48.6979 223.5 47.4062C225.542 47.1146 226.562 46.5 226.562 45.5625L226.625 30.875C226.625 28.6042 226.177 27.2188 225.281 26.7188C223.448 27.1771 221.594 28.3021 219.719 30.0938C219.719 35.8229 219.802 40.9583 219.969 45.5C220.031 46.0417 220.188 46.4583 220.438 46.75C220.688 47.0208 221.24 47.2396 222.094 47.4062C222.615 48.6979 222.615 49.9583 222.094 51.1875C216.115 51.0208 210.104 51.0208 204.062 51.1875C203.542 49.9583 203.542 48.6979 204.062 47.4062C207.458 46.9479 209.177 46.3125 209.219 45.5C209.406 40.8125 209.406 34.9062 209.219 27.7812C207.823 27.3646 206.104 27.0938 204.062 26.9688C203.583 25.7188 203.583 24.3958 204.062 23C207.208 22.8333 210.75 21.8958 214.688 20.1875C216.938 20.3542 218.615 21.0312 219.719 22.2188V23.25C221.177 22.2292 222.573 21.4896 223.906 21.0312C225.26 20.5521 227.042 20.3125 229.25 20.3125C232.667 20.3125 234.958 21.5521 236.125 24.0312C238.167 22.5312 239.865 21.5417 241.219 21.0625C242.594 20.5625 244.458 20.3125 246.812 20.3125C249.667 20.3125 251.688 21.0938 252.875 22.6562C254.083 24.1979 254.688 26.5938 254.688 29.8438C254.688 36.0312 254.792 41.2708 255 45.5625C255.042 46.4167 256.51 47.0312 259.406 47.4062C259.885 48.7812 259.844 50.0417 259.281 51.1875C253.177 51.0625 247.094 51.0625 241.031 51.1875C240.531 49.9583 240.531 48.6979 241.031 47.4062C241.719 47.4062 242.406 47.2292 243.094 46.875C243.781 46.5 244.125 46.0625 244.125 45.5625L244.188 30.875C244.188 28.6042 243.74 27.2188 242.844 26.7188C241.135 27.1354 239.229 28.2604 237.125 30.0938ZM232.656 28.75C232.531 26.2708 232.042 24.4583 231.188 23.3125C230.333 22.1667 228.948 21.5938 227.031 21.5938C225.615 21.5938 224.146 22 222.625 22.8125C221.125 23.625 219.927 24.4271 219.031 25.2188C218.135 25.9896 216.896 27.1667 215.312 28.75V22.5312C215.146 22.1979 214.781 21.9271 214.219 21.7188C211.323 23.0729 208.312 23.9271 205.188 24.2812C205.062 24.7812 205.062 25.2708 205.188 25.75C207.583 25.875 209.354 26.3021 210.5 27.0312C210.646 33.2604 210.646 39.4375 210.5 45.5625C210.458 47.1042 208.667 48.1042 205.125 48.5625C204.875 49.0417 204.875 49.5521 205.125 50.0938C210.458 49.9271 215.771 49.9271 221.062 50.0938C221.333 49.5521 221.333 49.0417 221.062 48.5625C217.438 48.1458 215.604 47.1458 215.562 45.5625C215.396 41.2292 215.312 36.2917 215.312 30.75C217.479 28.8542 219.25 27.4583 220.625 26.5625C222 25.6667 223.302 25.2188 224.531 25.2188C226.781 25.2188 227.906 27.1042 227.906 30.875L227.844 45.5625C227.844 47.1875 226.74 48.1875 224.531 48.5625C224.281 49.0417 224.281 49.5521 224.531 50.0938C229.219 49.9688 233.885 49.9688 238.531 50.0938C238.802 49.5521 238.802 49.0417 238.531 48.5625C237.427 48.4792 236.531 48.3646 235.844 48.2188C235.177 48.0729 234.542 47.7812 233.938 47.3438C233.333 46.8854 233.031 46.2917 233.031 45.5625L232.719 30.75C234.885 28.8542 236.656 27.4583 238.031 26.5625C239.406 25.6667 240.708 25.2188 241.938 25.2188C244.188 25.2188 245.312 27.1042 245.312 30.875L245.25 45.5625C245.25 47.1875 244.146 48.1875 241.938 48.5625C241.688 49.0417 241.688 49.5521 241.938 50.0938C247.312 49.9688 252.708 49.9688 258.125 50.0938C258.417 49.5938 258.417 49.0833 258.125 48.5625C253.042 48.3125 250.479 47.3125 250.438 45.5625L250.125 29.8438C250.042 26.9896 249.583 24.9062 248.75 23.5938C247.917 22.2604 246.479 21.5938 244.438 21.5938C243.021 21.5938 241.552 21.9896 240.031 22.7812C238.531 23.5521 237.312 24.3542 236.375 25.1875C235.438 26.0208 234.198 27.2083 232.656 28.75ZM278.281 23.625C279.948 23.625 281.156 24.1667 281.906 25.25C282.656 26.3125 283.031 27.6458 283.031 29.25C283.031 29.8542 282.927 30.5417 282.719 31.3125H270.531C271.177 28.7083 272.219 26.7812 273.656 25.5312C275.115 24.2604 276.656 23.625 278.281 23.625ZM270.219 33.4375H287.25C287.583 32.3958 287.75 31.3229 287.75 30.2188C287.75 27.7812 287.052 25.7396 285.656 24.0938C284.281 22.4271 282.083 21.5938 279.062 21.5938C275.125 21.5938 271.812 23.0208 269.125 25.875C266.438 28.7292 265.094 32.3542 265.094 36.75C265.094 41.4375 266.375 44.9688 268.938 47.3438C271.5 49.7188 274.51 50.9062 277.969 50.9062C280.531 50.9062 282.906 50.2188 285.094 48.8438C287.302 47.4479 288.917 45.3542 289.938 42.5625C289.646 42.2292 289.24 42 288.719 41.875C288.635 42 288.385 42.3438 287.969 42.9062C287.573 43.4479 287.281 43.8438 287.094 44.0938C286.906 44.3229 286.562 44.6667 286.062 45.125C285.583 45.5625 285.115 45.8854 284.656 46.0938C284.219 46.3021 283.656 46.5104 282.969 46.7188C282.281 46.9062 281.531 47 280.719 47C277.51 47 274.958 46.0521 273.062 44.1562C271.167 42.2396 270.177 39.6667 270.094 36.4375C270.094 35.7083 270.135 34.7083 270.219 33.4375ZM288.219 40.4062C289.531 40.6979 290.594 41.3542 291.406 42.375C290.219 45.625 288.385 48.0729 285.906 49.7188C283.427 51.3646 280.781 52.1875 277.969 52.1875C274.135 52.1875 270.812 50.8958 268 48.3125C265.208 45.7292 263.812 41.875 263.812 36.75C263.812 32.1042 265.24 28.2083 268.094 25.0625C270.969 21.8958 275.031 20.3125 280.281 20.3125C288.219 20.3125 292.188 23.6146 292.188 30.2188C292.188 31.5104 291.885 33.0104 291.281 34.7188H274.5V36.75C274.604 39.2708 275.292 41.3229 276.562 42.9062C277.833 44.4688 279.583 45.3854 281.812 45.6562C283.125 45.5312 284.208 45.0833 285.062 44.3125C285.917 43.5417 286.969 42.2396 288.219 40.4062ZM281.75 29.25C281.75 26.9583 280.979 25.5729 279.438 25.0938C277.604 25.6562 276.24 27.3021 275.344 30.0312H281.688C281.688 29.9479 281.698 29.8229 281.719 29.6562C281.74 29.4896 281.75 29.3542 281.75 29.25ZM324.625 25.375H336.906C337.198 24.5625 337.198 23.8125 336.906 23.125H324.625V16.2812C324.104 16.0521 323.583 16.0521 323.062 16.2812C322.292 17.7188 321.438 18.9792 320.5 20.0625C319.562 21.125 318.771 21.875 318.125 22.3125C317.5 22.7292 316.594 23.2708 315.406 23.9375C315.26 24.375 315.26 24.8542 315.406 25.375H319.219V41.75C319.219 47.8542 321.74 50.9062 326.781 50.9062C328.927 50.9062 330.906 50.3542 332.719 49.25C334.531 48.125 335.885 46.75 336.781 45.125C336.594 44.6667 336.25 44.4167 335.75 44.375C333.792 46.125 331.896 47 330.062 47C326.438 47 324.625 45.3542 324.625 42.0625V25.375ZM335.375 43.0312C336.688 43.1979 337.625 43.9167 338.188 45.1875C337.104 47.1667 335.531 48.8229 333.469 50.1562C331.406 51.5104 329.177 52.1875 326.781 52.1875C320.906 52.1875 317.969 48.7083 317.969 41.75V26.625H314.125C313.812 25.5208 313.812 24.375 314.125 23.1875C315.396 22.4583 316.365 21.8646 317.031 21.4062C317.698 20.9271 318.531 20.1562 319.531 19.0938C320.531 18.0312 321.417 16.75 322.188 15.25C324.146 14.4375 326.427 14.4792 329.031 15.375V21.8438H338.125C338.792 23.3854 338.792 24.9792 338.125 26.625H329.031V42.0625C329.031 44.0625 329.75 45.2396 331.188 45.5938C332.438 45.3229 333.833 44.4688 335.375 43.0312ZM358.094 23.625C360.24 23.625 361.938 24.6562 363.188 26.7188C364.458 28.7604 365.094 31.9375 365.094 36.25C365.094 40.5625 364.458 43.7396 363.188 45.7812C361.938 47.8229 360.24 48.8438 358.094 48.8438C356.906 48.8438 355.823 48.5938 354.844 48.0938C353.885 47.5938 353.062 46.8229 352.375 45.7812C351.708 44.7396 351.188 43.4375 350.812 41.875C350.438 40.2917 350.25 38.4167 350.25 36.25C350.25 34.1042 350.438 32.2396 350.812 30.6562C351.188 29.0521 351.708 27.7396 352.375 26.7188C353.062 25.6771 353.885 24.9062 354.844 24.4062C355.823 23.8854 356.906 23.625 358.094 23.625ZM358.094 50.9062C360.031 50.9062 361.771 50.5417 363.312 49.8125C364.854 49.0833 366.167 48.0729 367.25 46.7812C368.354 45.4688 369.198 43.9167 369.781 42.125C370.365 40.3333 370.656 38.375 370.656 36.25C370.656 34.125 370.365 32.1667 369.781 30.375C369.198 28.5833 368.354 27.0417 367.25 25.75C366.167 24.4375 364.854 23.4167 363.312 22.6875C361.771 21.9583 360.031 21.5938 358.094 21.5938C356.031 21.5938 354.167 21.9583 352.5 22.6875C350.833 23.4167 349.417 24.4271 348.25 25.7188C347.104 27.0104 346.219 28.5625 345.594 30.375C344.969 32.1667 344.656 34.125 344.656 36.25C344.656 38.3958 344.969 40.3646 345.594 42.1562C346.219 43.9479 347.104 45.5 348.25 46.8125C349.417 48.1042 350.833 49.1146 352.5 49.8438C354.167 50.5521 356.031 50.9062 358.094 50.9062ZM359.188 20.3125C361.708 20.3125 363.948 20.6979 365.906 21.4688C367.885 22.2396 369.552 23.3333 370.906 24.75C372.26 26.1458 373.292 27.8229 374 29.7812C374.708 31.7396 375.062 33.8958 375.062 36.25C375.062 38.5833 374.708 40.7292 374 42.6875C373.292 44.6458 372.26 46.3333 370.906 47.75C369.573 49.1458 367.917 50.2292 365.938 51C363.958 51.7917 361.708 52.1875 359.188 52.1875C356.688 52.1875 354.448 51.7917 352.469 51C350.51 50.2292 348.854 49.1458 347.5 47.75C346.167 46.3333 345.146 44.6562 344.438 42.7188C343.729 40.7604 343.375 38.6042 343.375 36.25C343.375 33.8958 343.729 31.7396 344.438 29.7812C345.146 27.8229 346.177 26.1458 347.531 24.75C348.885 23.3333 350.542 22.2396 352.5 21.4688C354.458 20.6979 356.688 20.3125 359.188 20.3125ZM354.656 36.25C354.656 42.9792 356.167 46.7083 359.188 47.4375C362.271 46.7083 363.812 42.9792 363.812 36.25C363.812 29.5833 362.271 25.8438 359.188 25.0312C356.167 25.8438 354.656 29.5833 354.656 36.25ZM412.594 23.625C414.74 23.625 416.438 24.6562 417.688 26.7188C418.958 28.7604 419.594 31.9375 419.594 36.25C419.594 40.5625 418.958 43.7396 417.688 45.7812C416.438 47.8229 414.74 48.8438 412.594 48.8438C411.406 48.8438 410.323 48.5938 409.344 48.0938C408.385 47.5938 407.562 46.8229 406.875 45.7812C406.208 44.7396 405.688 43.4375 405.312 41.875C404.938 40.2917 404.75 38.4167 404.75 36.25C404.75 34.1042 404.938 32.2396 405.312 30.6562C405.688 29.0521 406.208 27.7396 406.875 26.7188C407.562 25.6771 408.385 24.9062 409.344 24.4062C410.323 23.8854 411.406 23.625 412.594 23.625ZM412.594 50.9062C414.531 50.9062 416.271 50.5417 417.812 49.8125C419.354 49.0833 420.667 48.0729 421.75 46.7812C422.854 45.4688 423.698 43.9167 424.281 42.125C424.865 40.3333 425.156 38.375 425.156 36.25C425.156 34.125 424.865 32.1667 424.281 30.375C423.698 28.5833 422.854 27.0417 421.75 25.75C420.667 24.4375 419.354 23.4167 417.812 22.6875C416.271 21.9583 414.531 21.5938 412.594 21.5938C410.531 21.5938 408.667 21.9583 407 22.6875C405.333 23.4167 403.917 24.4271 402.75 25.7188C401.604 27.0104 400.719 28.5625 400.094 30.375C399.469 32.1667 399.156 34.125 399.156 36.25C399.156 38.3958 399.469 40.3646 400.094 42.1562C400.719 43.9479 401.604 45.5 402.75 46.8125C403.917 48.1042 405.333 49.1146 407 49.8438C408.667 50.5521 410.531 50.9062 412.594 50.9062ZM413.688 20.3125C416.208 20.3125 418.448 20.6979 420.406 21.4688C422.385 22.2396 424.052 23.3333 425.406 24.75C426.76 26.1458 427.792 27.8229 428.5 29.7812C429.208 31.7396 429.562 33.8958 429.562 36.25C429.562 38.5833 429.208 40.7292 428.5 42.6875C427.792 44.6458 426.76 46.3333 425.406 47.75C424.073 49.1458 422.417 50.2292 420.438 51C418.458 51.7917 416.208 52.1875 413.688 52.1875C411.188 52.1875 408.948 51.7917 406.969 51C405.01 50.2292 403.354 49.1458 402 47.75C400.667 46.3333 399.646 44.6562 398.938 42.7188C398.229 40.7604 397.875 38.6042 397.875 36.25C397.875 33.8958 398.229 31.7396 398.938 29.7812C399.646 27.8229 400.677 26.1458 402.031 24.75C403.385 23.3333 405.042 22.2396 407 21.4688C408.958 20.6979 411.188 20.3125 413.688 20.3125ZM409.156 36.25C409.156 42.9792 410.667 46.7083 413.688 47.4375C416.771 46.7083 418.312 42.9792 418.312 36.25C418.312 29.5833 416.771 25.8438 413.688 25.0312C410.667 25.8438 409.156 29.5833 409.156 36.25ZM457.125 42.4375C457.292 37.2292 457.292 32.0104 457.125 26.7812C457.125 26.0521 455.552 25.4271 452.406 24.9062C451.927 23.6354 451.927 22.375 452.406 21.125H465.906C466.49 21.3542 466.906 21.6042 467.156 21.875C467.427 22.1458 467.667 22.5417 467.875 23.0625C467.875 23.4375 467.823 24.0312 467.719 24.8438C467.615 25.6562 467.562 26.3021 467.562 26.7812C467.354 33.6354 467.354 39.6042 467.562 44.6875C469.062 45.1667 470.646 45.4479 472.312 45.5312C472.771 46.7604 472.771 48.0833 472.312 49.5C469.583 49.6667 466.208 50.6042 462.188 52.3125C459.917 52.1458 458.229 51.4583 457.125 50.25V49.4375C454.271 51.2708 450.885 52.1875 446.969 52.1875C444.135 52.1875 442.125 51.4167 440.938 49.875C439.75 48.3333 439.135 45.9167 439.094 42.625C439.135 37.3958 439.135 32.1146 439.094 26.7812C439.094 26.0521 437.51 25.4271 434.344 24.9062C433.885 23.6354 433.885 22.375 434.344 21.125H447.906C448.51 21.3542 448.938 21.6042 449.188 21.875C449.458 22.1458 449.698 22.5417 449.906 23.0625C449.906 23.4375 449.854 24.0312 449.75 24.8438C449.646 25.6562 449.594 26.3021 449.594 26.7812C449.448 31.6354 449.448 36.5833 449.594 41.625C449.677 44 450.104 45.3854 450.875 45.7812C452.396 45.3854 454.479 44.2708 457.125 42.4375ZM458.406 26.7812C458.531 32.1979 458.531 37.6354 458.406 43.0938C454.531 45.8646 451.542 47.25 449.438 47.25C446.583 47.25 445.156 45.375 445.156 41.625C445.031 36.5833 445.031 31.6354 445.156 26.7812C445.156 26.2188 445.208 25.5417 445.312 24.75C445.438 23.9583 445.5 23.4583 445.5 23.25C445.271 22.7708 444.969 22.4479 444.594 22.2812C441.51 22.4896 438.438 22.4896 435.375 22.2812C435.208 22.7604 435.208 23.25 435.375 23.75C438.667 24.2708 440.333 25.2812 440.375 26.7812C440.417 32.0729 440.417 37.3542 440.375 42.625C440.333 45.4583 440.823 47.5521 441.844 48.9062C442.865 50.2396 444.573 50.9062 446.969 50.9062C450.115 50.9062 453.927 48.9583 458.406 45.0625V49.625C458.573 49.9583 458.938 50.2292 459.5 50.4375C462.479 49.3333 466.344 48.5938 471.094 48.2188C471.26 47.6979 471.26 47.2083 471.094 46.75C467.51 46.6042 464.865 46.1771 463.156 45.4688C462.99 38.0312 462.99 31.8021 463.156 26.7812C463.156 26.2188 463.208 25.5417 463.312 24.75C463.417 23.9583 463.469 23.4583 463.469 23.25C463.26 22.7708 462.958 22.4479 462.562 22.2812C459.542 22.4479 456.49 22.4479 453.406 22.2812C453.24 22.7604 453.24 23.25 453.406 23.75C456.698 24.2708 458.365 25.2812 458.406 26.7812ZM488.812 32.4062C489.333 30.4896 490.406 28.625 492.031 26.8125C493.656 25 495.312 24.0938 497 24.0938C498.979 24.0938 499.969 24.7292 499.969 26C499.969 27.1458 499.427 27.875 498.344 28.1875C498.052 28.6042 498.052 29.0938 498.344 29.6562C499.469 29.6562 500.385 29.3125 501.094 28.625C501.823 27.9375 502.188 26.9792 502.188 25.75C502.188 24.4583 501.792 23.4479 501 22.7188C500.229 21.9688 499.219 21.5938 497.969 21.5938C496.344 21.5938 494.708 22.25 493.062 23.5625C491.438 24.8542 490.021 26.3021 488.812 27.9062V22.5312C488.646 22.1979 488.292 21.9271 487.75 21.7188C484.958 23.0312 481.729 23.8854 478.062 24.2812C477.938 24.7812 477.938 25.2708 478.062 25.75C480.875 25.875 482.885 26.3021 484.094 27.0312C484.26 34.8021 484.24 41.0312 484.031 45.7188C483.99 47.2604 482.219 48.2604 478.719 48.7188C478.406 49.2812 478.406 49.7708 478.719 50.1875C484.177 49.9375 490.125 49.9375 496.562 50.1875C496.854 49.7708 496.854 49.2812 496.562 48.7188C491.625 48.2604 489.135 47.2604 489.094 45.7188C488.906 41.4896 488.812 37.0521 488.812 32.4062ZM493.5 45.6562C493.542 46.4688 494.948 47.1042 497.719 47.5625C498.406 48.9375 498.365 50.2604 497.594 51.5312C488.76 51.2396 482.083 51.1771 477.562 51.3438C476.792 50.1146 476.75 48.8542 477.438 47.5625C480.938 47.1042 482.708 46.4688 482.75 45.6562C483 39.7188 483.021 33.7604 482.812 27.7812C481.438 27.3646 479.542 27.0938 477.125 26.9688C476.646 25.7188 476.646 24.3958 477.125 23C480.604 22.7917 484.292 21.8542 488.188 20.1875C490.438 20.4375 492.125 21.1146 493.25 22.2188C495 20.9479 496.573 20.3125 497.969 20.3125C499.594 20.3125 500.917 20.7917 501.938 21.75C502.958 22.7083 503.469 24.0417 503.469 25.75C503.469 27.375 502.99 28.6458 502.031 29.5625C501.073 30.4792 499.844 30.9375 498.344 30.9375C496.948 30.9375 495.781 30.4688 494.844 29.5312C493.99 30.6771 493.458 31.7188 493.25 32.6562C493.25 37.1771 493.333 41.5104 493.5 45.6562ZM89.4062 135.281C92.5729 135.281 95.8125 134.562 99.125 133.125C102.458 131.667 105.094 129.531 107.031 126.719C107.031 126.448 106.906 126.219 106.656 126.031C106.427 125.844 106.167 125.75 105.875 125.75C102.75 129.542 98.1562 131.438 92.0938 131.438C85.6979 131.438 80.8646 129.51 77.5938 125.656C74.3438 121.781 72.7188 116.969 72.7188 111.219C72.7188 108.615 73 106.104 73.5625 103.688C74.1458 101.25 75.0417 98.9271 76.25 96.7188C77.4792 94.4896 79.2188 92.6875 81.4688 91.3125C83.7396 89.9375 86.3854 89.25 89.4062 89.25C91.4688 89.25 93.375 89.5729 95.125 90.2188C96.875 90.8646 98.3125 91.625 99.4375 92.5C100.562 93.375 101.656 94.5521 102.719 96.0312C103.802 97.4896 104.615 98.7604 105.156 99.8438C105.719 100.906 106.385 102.26 107.156 103.906C107.781 103.823 108.167 103.594 108.312 103.219C106.771 97.0312 104.438 92.7917 101.312 90.5C98.2083 88.1875 94.2396 87.0312 89.4062 87.0312C87.4479 87.0312 85.4479 87.2708 83.4062 87.75C81.3646 88.2083 79.2604 89.0417 77.0938 90.25C74.9479 91.4375 73.0521 92.9167 71.4062 94.6875C69.7604 96.4375 68.4062 98.75 67.3438 101.625C66.2812 104.479 65.75 107.677 65.75 111.219C65.75 114.76 66.2812 117.958 67.3438 120.812C68.4062 123.667 69.7604 125.969 71.4062 127.719C73.0521 129.469 74.9479 130.938 77.0938 132.125C79.2604 133.292 81.3646 134.104 83.4062 134.562C85.4479 135.042 87.4479 135.281 89.4062 135.281ZM106.375 105.312C105.479 103.312 104.656 101.667 103.906 100.375C103.156 99.0625 102.156 97.6042 100.906 96C99.6562 94.375 98.1667 93.1146 96.4375 92.2188C94.7083 91.3229 92.7708 90.7812 90.625 90.5938C88.25 90.7812 86.1771 91.5417 84.4062 92.875C82.6354 94.1875 81.2604 95.875 80.2812 97.9375C79.3229 100 78.6146 102.146 78.1562 104.375C77.7188 106.583 77.5 108.865 77.5 111.219C77.5 116.469 78.8229 120.875 81.4688 124.438C84.1146 128 88.0625 129.906 93.3125 130.156C98.3958 129.906 102.385 128.01 105.281 124.469C106.094 124.469 106.802 124.74 107.406 125.281C108.01 125.802 108.312 126.427 108.312 127.156C106.208 130.219 103.365 132.552 99.7812 134.156C96.1979 135.76 92.7396 136.562 89.4062 136.562C87.3229 136.562 85.2083 136.312 83.0625 135.812C80.9375 135.333 78.7292 134.479 76.4375 133.25C74.1667 132 72.1562 130.448 70.4062 128.594C68.6562 126.74 67.2292 124.312 66.125 121.312C65.0208 118.292 64.4688 114.927 64.4688 111.219C64.4688 107.344 65.0417 103.885 66.1875 100.844C67.3333 97.7812 68.8021 95.3333 70.5938 93.5C72.3854 91.6667 74.4792 90.1458 76.875 88.9375C79.2708 87.7083 81.5938 86.875 83.8438 86.4375C86.1146 85.9792 88.3958 85.75 90.6875 85.75C93.8125 85.75 97.2083 86.1667 100.875 87C104.542 87.8333 107.167 88.3542 108.75 88.5625C108.062 91.25 107.792 93.6146 107.938 95.6562C108.083 97.6771 108.677 100.156 109.719 103.094C109.115 104.323 108 105.062 106.375 105.312ZM137.375 126.438C137.542 121.229 137.542 116.01 137.375 110.781C137.375 110.052 135.802 109.427 132.656 108.906C132.177 107.635 132.177 106.375 132.656 105.125H146.156C146.74 105.354 147.156 105.604 147.406 105.875C147.677 106.146 147.917 106.542 148.125 107.062C148.125 107.438 148.073 108.031 147.969 108.844C147.865 109.656 147.812 110.302 147.812 110.781C147.604 117.635 147.604 123.604 147.812 128.688C149.312 129.167 150.896 129.448 152.562 129.531C153.021 130.76 153.021 132.083 152.562 133.5C149.833 133.667 146.458 134.604 142.438 136.312C140.167 136.146 138.479 135.458 137.375 134.25V133.438C134.521 135.271 131.135 136.188 127.219 136.188C124.385 136.188 122.375 135.417 121.188 133.875C120 132.333 119.385 129.917 119.344 126.625C119.385 121.396 119.385 116.115 119.344 110.781C119.344 110.052 117.76 109.427 114.594 108.906C114.135 107.635 114.135 106.375 114.594 105.125H128.156C128.76 105.354 129.188 105.604 129.438 105.875C129.708 106.146 129.948 106.542 130.156 107.062C130.156 107.438 130.104 108.031 130 108.844C129.896 109.656 129.844 110.302 129.844 110.781C129.698 115.635 129.698 120.583 129.844 125.625C129.927 128 130.354 129.385 131.125 129.781C132.646 129.385 134.729 128.271 137.375 126.438ZM138.656 110.781C138.781 116.198 138.781 121.635 138.656 127.094C134.781 129.865 131.792 131.25 129.688 131.25C126.833 131.25 125.406 129.375 125.406 125.625C125.281 120.583 125.281 115.635 125.406 110.781C125.406 110.219 125.458 109.542 125.562 108.75C125.688 107.958 125.75 107.458 125.75 107.25C125.521 106.771 125.219 106.448 124.844 106.281C121.76 106.49 118.688 106.49 115.625 106.281C115.458 106.76 115.458 107.25 115.625 107.75C118.917 108.271 120.583 109.281 120.625 110.781C120.667 116.073 120.667 121.354 120.625 126.625C120.583 129.458 121.073 131.552 122.094 132.906C123.115 134.24 124.823 134.906 127.219 134.906C130.365 134.906 134.177 132.958 138.656 129.062V133.625C138.823 133.958 139.188 134.229 139.75 134.438C142.729 133.333 146.594 132.594 151.344 132.219C151.51 131.698 151.51 131.208 151.344 130.75C147.76 130.604 145.115 130.177 143.406 129.469C143.24 122.031 143.24 115.802 143.406 110.781C143.406 110.219 143.458 109.542 143.562 108.75C143.667 107.958 143.719 107.458 143.719 107.25C143.51 106.771 143.208 106.448 142.812 106.281C139.792 106.448 136.74 106.448 133.656 106.281C133.49 106.76 133.49 107.25 133.656 107.75C136.948 108.271 138.615 109.281 138.656 110.781ZM163 134.375C162 134.708 161.021 135.115 160.062 135.594C159.083 134.99 158.438 134.375 158.125 133.75C158.167 133.625 158.229 133.198 158.312 132.469C158.396 131.74 158.479 130.885 158.562 129.906C158.667 128.927 158.75 127.917 158.812 126.875C158.875 125.833 158.906 124.948 158.906 124.219C159.885 123.76 161.396 123.531 163.438 123.531C163.667 123.531 163.896 123.531 164.125 123.531C164.354 123.531 164.594 123.542 164.844 123.562C166.344 128.438 168.396 131.083 171 131.5C172.062 131.333 172.875 130.948 173.438 130.344C174.021 129.719 174.312 129.021 174.312 128.25C174.312 127.688 174.156 127.167 173.844 126.688C173.531 126.188 173.115 125.729 172.594 125.312C172.073 124.896 171.458 124.51 170.75 124.156C170.062 123.802 169.333 123.458 168.562 123.125C167.792 122.771 167.01 122.438 166.219 122.125C165.427 121.792 164.667 121.448 163.938 121.094C163.167 120.74 162.438 120.312 161.75 119.812C161.062 119.292 160.458 118.708 159.938 118.062C159.417 117.396 159 116.667 158.688 115.875C158.396 115.083 158.25 114.229 158.25 113.312C158.25 112.333 158.417 111.312 158.75 110.25C159.083 109.188 159.656 108.219 160.469 107.344C161.281 106.469 162.375 105.75 163.75 105.188C165.125 104.604 166.854 104.312 168.938 104.312C171.25 104.312 172.958 104.438 174.062 104.688L175.219 104.312H177.344C177.615 106.083 177.938 107.74 178.312 109.281C178.708 110.823 179.146 112.26 179.625 113.594C178.729 114.49 177.646 114.938 176.375 114.938C175.667 114.104 175.01 113.354 174.406 112.688C173.802 112 173.219 111.406 172.656 110.906C172.115 110.406 171.573 110 171.031 109.688C170.51 109.375 169.969 109.156 169.406 109.031C168.031 109.26 167.344 109.885 167.344 110.906C167.344 111.719 167.698 112.427 168.406 113.031C169.115 113.635 170 114.188 171.062 114.688C172.125 115.188 173.281 115.667 174.531 116.125C175.802 116.562 177 117.031 178.125 117.531C178.938 117.885 179.698 118.344 180.406 118.906C181.135 119.469 181.771 120.125 182.312 120.875C182.854 121.604 183.281 122.427 183.594 123.344C183.906 124.24 184.062 125.208 184.062 126.25C184.062 127.792 183.667 129.177 182.875 130.406C182.104 131.635 181.073 132.677 179.781 133.531C178.51 134.385 177.052 135.042 175.406 135.5C173.76 135.958 172.083 136.188 170.375 136.188C167.438 136.188 164.979 135.583 163 134.375ZM170.156 134.906C172.76 134.906 174.99 134.135 176.844 132.594C178.698 131.052 179.625 129.323 179.625 127.406C179.625 125.531 179.052 123.917 177.906 122.562C176.76 121.188 175.375 120.125 173.75 119.375C172.125 118.625 170.49 117.938 168.844 117.312C167.198 116.667 165.802 115.917 164.656 115.062C163.51 114.208 162.938 113.208 162.938 112.062C162.938 110.604 163.479 109.5 164.562 108.75C165.646 108 166.917 107.625 168.375 107.625C169.917 107.625 171.292 108.104 172.5 109.062C173.708 110.021 175.188 111.552 176.938 113.656C177.5 113.656 177.906 113.521 178.156 113.25C177.385 111.042 176.24 109.219 174.719 107.781C173.219 106.323 171.292 105.594 168.938 105.594C165.583 105.594 163.177 106.396 161.719 108C160.26 109.583 159.531 111.354 159.531 113.312C159.531 114.979 160.083 116.406 161.188 117.594C162.312 118.76 163.656 119.667 165.219 120.312C166.802 120.938 168.375 121.562 169.938 122.188C171.5 122.812 172.833 123.625 173.938 124.625C175.042 125.625 175.594 126.833 175.594 128.25C175.594 129.438 175.083 130.5 174.062 131.438C173.042 132.375 171.615 132.844 169.781 132.844C167.573 132.844 165.865 132.146 164.656 130.75C163.469 129.333 162.469 127.365 161.656 124.844C160.927 124.844 160.438 124.906 160.188 125.031C160.188 126.531 160.115 128.25 159.969 130.188C159.823 132.125 159.677 133.271 159.531 133.625C159.677 133.833 159.875 134.021 160.125 134.188C160.979 133.583 161.635 132.948 162.094 132.281C163.927 133.302 165.354 133.99 166.375 134.344C167.417 134.719 168.677 134.906 170.156 134.906ZM199.25 109.375H211.531C211.823 108.562 211.823 107.812 211.531 107.125H199.25V100.281C198.729 100.052 198.208 100.052 197.688 100.281C196.917 101.719 196.062 102.979 195.125 104.062C194.188 105.125 193.396 105.875 192.75 106.312C192.125 106.729 191.219 107.271 190.031 107.938C189.885 108.375 189.885 108.854 190.031 109.375H193.844V125.75C193.844 131.854 196.365 134.906 201.406 134.906C203.552 134.906 205.531 134.354 207.344 133.25C209.156 132.125 210.51 130.75 211.406 129.125C211.219 128.667 210.875 128.417 210.375 128.375C208.417 130.125 206.521 131 204.688 131C201.062 131 199.25 129.354 199.25 126.062V109.375ZM210 127.031C211.312 127.198 212.25 127.917 212.812 129.188C211.729 131.167 210.156 132.823 208.094 134.156C206.031 135.51 203.802 136.188 201.406 136.188C195.531 136.188 192.594 132.708 192.594 125.75V110.625H188.75C188.438 109.521 188.438 108.375 188.75 107.188C190.021 106.458 190.99 105.865 191.656 105.406C192.323 104.927 193.156 104.156 194.156 103.094C195.156 102.031 196.042 100.75 196.812 99.25C198.771 98.4375 201.052 98.4792 203.656 99.375V105.844H212.75C213.417 107.385 213.417 108.979 212.75 110.625H203.656V126.062C203.656 128.062 204.375 129.24 205.812 129.594C207.062 129.323 208.458 128.469 210 127.031ZM232.719 107.625C234.865 107.625 236.562 108.656 237.812 110.719C239.083 112.76 239.719 115.938 239.719 120.25C239.719 124.562 239.083 127.74 237.812 129.781C236.562 131.823 234.865 132.844 232.719 132.844C231.531 132.844 230.448 132.594 229.469 132.094C228.51 131.594 227.688 130.823 227 129.781C226.333 128.74 225.812 127.438 225.438 125.875C225.062 124.292 224.875 122.417 224.875 120.25C224.875 118.104 225.062 116.24 225.438 114.656C225.812 113.052 226.333 111.74 227 110.719C227.688 109.677 228.51 108.906 229.469 108.406C230.448 107.885 231.531 107.625 232.719 107.625ZM232.719 134.906C234.656 134.906 236.396 134.542 237.938 133.812C239.479 133.083 240.792 132.073 241.875 130.781C242.979 129.469 243.823 127.917 244.406 126.125C244.99 124.333 245.281 122.375 245.281 120.25C245.281 118.125 244.99 116.167 244.406 114.375C243.823 112.583 242.979 111.042 241.875 109.75C240.792 108.438 239.479 107.417 237.938 106.688C236.396 105.958 234.656 105.594 232.719 105.594C230.656 105.594 228.792 105.958 227.125 106.688C225.458 107.417 224.042 108.427 222.875 109.719C221.729 111.01 220.844 112.562 220.219 114.375C219.594 116.167 219.281 118.125 219.281 120.25C219.281 122.396 219.594 124.365 220.219 126.156C220.844 127.948 221.729 129.5 222.875 130.812C224.042 132.104 225.458 133.115 227.125 133.844C228.792 134.552 230.656 134.906 232.719 134.906ZM233.812 104.312C236.333 104.312 238.573 104.698 240.531 105.469C242.51 106.24 244.177 107.333 245.531 108.75C246.885 110.146 247.917 111.823 248.625 113.781C249.333 115.74 249.688 117.896 249.688 120.25C249.688 122.583 249.333 124.729 248.625 126.688C247.917 128.646 246.885 130.333 245.531 131.75C244.198 133.146 242.542 134.229 240.562 135C238.583 135.792 236.333 136.188 233.812 136.188C231.312 136.188 229.073 135.792 227.094 135C225.135 134.229 223.479 133.146 222.125 131.75C220.792 130.333 219.771 128.656 219.062 126.719C218.354 124.76 218 122.604 218 120.25C218 117.896 218.354 115.74 219.062 113.781C219.771 111.823 220.802 110.146 222.156 108.75C223.51 107.333 225.167 106.24 227.125 105.469C229.083 104.698 231.312 104.312 233.812 104.312ZM229.281 120.25C229.281 126.979 230.792 130.708 233.812 131.438C236.896 130.708 238.438 126.979 238.438 120.25C238.438 113.583 236.896 109.844 233.812 109.031C230.792 109.844 229.281 113.583 229.281 120.25ZM260.625 134.375C259.625 134.708 258.646 135.115 257.688 135.594C256.708 134.99 256.062 134.375 255.75 133.75C255.792 133.625 255.854 133.198 255.938 132.469C256.021 131.74 256.104 130.885 256.188 129.906C256.292 128.927 256.375 127.917 256.438 126.875C256.5 125.833 256.531 124.948 256.531 124.219C257.51 123.76 259.021 123.531 261.062 123.531C261.292 123.531 261.521 123.531 261.75 123.531C261.979 123.531 262.219 123.542 262.469 123.562C263.969 128.438 266.021 131.083 268.625 131.5C269.688 131.333 270.5 130.948 271.062 130.344C271.646 129.719 271.938 129.021 271.938 128.25C271.938 127.688 271.781 127.167 271.469 126.688C271.156 126.188 270.74 125.729 270.219 125.312C269.698 124.896 269.083 124.51 268.375 124.156C267.688 123.802 266.958 123.458 266.188 123.125C265.417 122.771 264.635 122.438 263.844 122.125C263.052 121.792 262.292 121.448 261.562 121.094C260.792 120.74 260.062 120.312 259.375 119.812C258.688 119.292 258.083 118.708 257.562 118.062C257.042 117.396 256.625 116.667 256.312 115.875C256.021 115.083 255.875 114.229 255.875 113.312C255.875 112.333 256.042 111.312 256.375 110.25C256.708 109.188 257.281 108.219 258.094 107.344C258.906 106.469 260 105.75 261.375 105.188C262.75 104.604 264.479 104.312 266.562 104.312C268.875 104.312 270.583 104.438 271.688 104.688L272.844 104.312H274.969C275.24 106.083 275.562 107.74 275.938 109.281C276.333 110.823 276.771 112.26 277.25 113.594C276.354 114.49 275.271 114.938 274 114.938C273.292 114.104 272.635 113.354 272.031 112.688C271.427 112 270.844 111.406 270.281 110.906C269.74 110.406 269.198 110 268.656 109.688C268.135 109.375 267.594 109.156 267.031 109.031C265.656 109.26 264.969 109.885 264.969 110.906C264.969 111.719 265.323 112.427 266.031 113.031C266.74 113.635 267.625 114.188 268.688 114.688C269.75 115.188 270.906 115.667 272.156 116.125C273.427 116.562 274.625 117.031 275.75 117.531C276.562 117.885 277.323 118.344 278.031 118.906C278.76 119.469 279.396 120.125 279.938 120.875C280.479 121.604 280.906 122.427 281.219 123.344C281.531 124.24 281.688 125.208 281.688 126.25C281.688 127.792 281.292 129.177 280.5 130.406C279.729 131.635 278.698 132.677 277.406 133.531C276.135 134.385 274.677 135.042 273.031 135.5C271.385 135.958 269.708 136.188 268 136.188C265.062 136.188 262.604 135.583 260.625 134.375ZM267.781 134.906C270.385 134.906 272.615 134.135 274.469 132.594C276.323 131.052 277.25 129.323 277.25 127.406C277.25 125.531 276.677 123.917 275.531 122.562C274.385 121.188 273 120.125 271.375 119.375C269.75 118.625 268.115 117.938 266.469 117.312C264.823 116.667 263.427 115.917 262.281 115.062C261.135 114.208 260.562 113.208 260.562 112.062C260.562 110.604 261.104 109.5 262.188 108.75C263.271 108 264.542 107.625 266 107.625C267.542 107.625 268.917 108.104 270.125 109.062C271.333 110.021 272.812 111.552 274.562 113.656C275.125 113.656 275.531 113.521 275.781 113.25C275.01 111.042 273.865 109.219 272.344 107.781C270.844 106.323 268.917 105.594 266.562 105.594C263.208 105.594 260.802 106.396 259.344 108C257.885 109.583 257.156 111.354 257.156 113.312C257.156 114.979 257.708 116.406 258.812 117.594C259.938 118.76 261.281 119.667 262.844 120.312C264.427 120.938 266 121.562 267.562 122.188C269.125 122.812 270.458 123.625 271.562 124.625C272.667 125.625 273.219 126.833 273.219 128.25C273.219 129.438 272.708 130.5 271.688 131.438C270.667 132.375 269.24 132.844 267.406 132.844C265.198 132.844 263.49 132.146 262.281 130.75C261.094 129.333 260.094 127.365 259.281 124.844C258.552 124.844 258.062 124.906 257.812 125.031C257.812 126.531 257.74 128.25 257.594 130.188C257.448 132.125 257.302 133.271 257.156 133.625C257.302 133.833 257.5 134.021 257.75 134.188C258.604 133.583 259.26 132.948 259.719 132.281C261.552 133.302 262.979 133.99 264 134.344C265.042 134.719 266.302 134.906 267.781 134.906ZM309.406 113.969H305.062C305.062 118.927 305.167 124.177 305.375 129.719C305.375 129.844 305.427 129.958 305.531 130.062C305.635 130.167 305.781 130.271 305.969 130.375C306.177 130.479 306.521 130.615 307 130.781C307.479 130.948 308.448 131.135 309.906 131.344C311.365 131.531 312.198 131.646 312.406 131.688C312.76 132.854 312.698 134.135 312.219 135.531C304.531 135.365 299.865 135.281 298.219 135.281C297.094 135.281 293.167 135.365 286.438 135.531C285.917 134.094 285.917 132.75 286.438 131.5C290.958 131.042 293.24 130.427 293.281 129.656C293.531 124.448 293.656 117.896 293.656 110C293.656 103.292 293.552 97.4896 293.344 92.5938C293.302 91.8229 290.979 91.2083 286.375 90.75C285.979 89.2917 286.021 87.9479 286.5 86.7188C292.896 86.9271 297.135 87.0312 299.219 87.0312H328.156C328.677 91.1146 330.302 95.4167 333.031 99.9375C332.552 100.938 331.438 101.75 329.688 102.375C327.979 99.2708 325.458 96.6875 322.125 94.625C318.812 92.5417 314.51 91.5 309.219 91.5H305.375C305.167 98.9792 305.062 104.719 305.062 108.719C306.083 108.76 307.552 108.781 309.469 108.781C311.219 108.781 312.615 108.198 313.656 107.031C314.698 105.844 315.844 104 317.094 101.5L318.438 98.875C320.188 99.5 321.292 100.302 321.75 101.281C319.542 105.26 318.438 108.531 318.438 111.094C318.438 113.865 319.542 117.125 321.75 120.875C321.25 121.938 320.188 122.75 318.562 123.312C318.083 122.667 317.531 121.688 316.906 120.375C316.052 118.958 315.375 117.906 314.875 117.219C314.375 116.51 313.635 115.802 312.656 115.094C311.677 114.385 310.594 114.01 309.406 113.969ZM300.25 112.125L309.156 112.062C310.052 112.062 310.896 112.208 311.688 112.5C312.479 112.792 313.104 113.094 313.562 113.406C314.042 113.698 314.583 114.271 315.188 115.125C315.812 115.979 316.25 116.604 316.5 117C316.771 117.375 317.208 118.167 317.812 119.375C318.438 120.583 318.854 121.365 319.062 121.719C319.708 121.448 320.115 121.167 320.281 120.875C318.198 117.167 317.156 113.906 317.156 111.094C317.156 109.802 317.448 108.229 318.031 106.375C318.635 104.521 319.385 102.823 320.281 101.281C320.198 100.99 319.792 100.719 319.062 100.469C318.896 100.76 318.562 101.385 318.062 102.344C317.583 103.302 317.271 103.927 317.125 104.219C316.979 104.49 316.677 105 316.219 105.75C315.781 106.5 315.427 107 315.156 107.25C314.906 107.5 314.531 107.875 314.031 108.375C313.552 108.854 313.083 109.188 312.625 109.375C312.188 109.542 311.667 109.698 311.062 109.844C310.458 109.99 309.823 110.062 309.156 110.062C305.26 110.062 302.292 110.021 300.25 109.938C300.25 104.896 300.375 98.3229 300.625 90.2188H309.281C319.469 90.2188 326.469 93.7396 330.281 100.781C330.823 100.573 331.177 100.292 331.344 99.9375C329.26 95.6875 326.927 92.6875 324.344 90.9375C321.76 89.1875 317.906 88.3125 312.781 88.3125H298.344C295.74 88.3125 292.083 88.2292 287.375 88.0625V89.5312C292.167 89.9896 294.583 90.9896 294.625 92.5312C294.833 97.4271 294.938 103.25 294.938 110C294.938 116.604 294.812 123.177 294.562 129.719C294.521 131.26 292.104 132.26 287.312 132.719C287.146 133.052 287.146 133.542 287.312 134.188C290.854 134.062 294.49 134 298.219 134C302.656 134 306.917 134.062 311 134.188C311.167 133.854 311.167 133.365 311 132.719C304.125 132.302 300.646 131.302 300.562 129.719C300.354 124.802 300.25 118.938 300.25 112.125ZM355.375 132.562C350.417 132.104 347.917 131.104 347.875 129.562C347.667 118.021 347.583 103.948 347.625 87.3438C347.458 87.0104 347.094 86.7292 346.531 86.5C343.635 87.875 340.625 88.7292 337.5 89.0625C337.375 89.5833 337.375 90.0729 337.5 90.5312C339.854 90.6771 341.646 91.1042 342.875 91.8125C343.042 107.479 343.021 120.062 342.812 129.562C342.771 131.104 341 132.104 337.5 132.562C337.292 133.083 337.292 133.594 337.5 134.094C342.333 133.927 348.292 133.927 355.375 134.094C355.583 133.594 355.583 133.083 355.375 132.562ZM356.5 131.406C356.854 132.698 356.854 133.958 356.5 135.188C348.479 135.021 341.76 135.021 336.344 135.188C336.01 133.958 336.01 132.698 336.344 131.406C339.76 131.073 341.49 130.438 341.531 129.5C341.781 117.271 341.802 104.969 341.594 92.5938C340.198 92.1562 338.448 91.875 336.344 91.75C335.885 90.5208 335.885 89.1979 336.344 87.7812C339.51 87.6146 343.052 86.6771 346.969 84.9688C349.24 85.1354 350.927 85.8229 352.031 87.0312C351.948 105.594 352.031 119.75 352.281 129.5C352.323 130.438 353.729 131.073 356.5 131.406ZM376.344 107.625C378.49 107.625 380.188 108.656 381.438 110.719C382.708 112.76 383.344 115.938 383.344 120.25C383.344 124.562 382.708 127.74 381.438 129.781C380.188 131.823 378.49 132.844 376.344 132.844C375.156 132.844 374.073 132.594 373.094 132.094C372.135 131.594 371.312 130.823 370.625 129.781C369.958 128.74 369.438 127.438 369.062 125.875C368.688 124.292 368.5 122.417 368.5 120.25C368.5 118.104 368.688 116.24 369.062 114.656C369.438 113.052 369.958 111.74 370.625 110.719C371.312 109.677 372.135 108.906 373.094 108.406C374.073 107.885 375.156 107.625 376.344 107.625ZM376.344 134.906C378.281 134.906 380.021 134.542 381.562 133.812C383.104 133.083 384.417 132.073 385.5 130.781C386.604 129.469 387.448 127.917 388.031 126.125C388.615 124.333 388.906 122.375 388.906 120.25C388.906 118.125 388.615 116.167 388.031 114.375C387.448 112.583 386.604 111.042 385.5 109.75C384.417 108.438 383.104 107.417 381.562 106.688C380.021 105.958 378.281 105.594 376.344 105.594C374.281 105.594 372.417 105.958 370.75 106.688C369.083 107.417 367.667 108.427 366.5 109.719C365.354 111.01 364.469 112.562 363.844 114.375C363.219 116.167 362.906 118.125 362.906 120.25C362.906 122.396 363.219 124.365 363.844 126.156C364.469 127.948 365.354 129.5 366.5 130.812C367.667 132.104 369.083 133.115 370.75 133.844C372.417 134.552 374.281 134.906 376.344 134.906ZM377.438 104.312C379.958 104.312 382.198 104.698 384.156 105.469C386.135 106.24 387.802 107.333 389.156 108.75C390.51 110.146 391.542 111.823 392.25 113.781C392.958 115.74 393.312 117.896 393.312 120.25C393.312 122.583 392.958 124.729 392.25 126.688C391.542 128.646 390.51 130.333 389.156 131.75C387.823 133.146 386.167 134.229 384.188 135C382.208 135.792 379.958 136.188 377.438 136.188C374.938 136.188 372.698 135.792 370.719 135C368.76 134.229 367.104 133.146 365.75 131.75C364.417 130.333 363.396 128.656 362.688 126.719C361.979 124.76 361.625 122.604 361.625 120.25C361.625 117.896 361.979 115.74 362.688 113.781C363.396 111.823 364.427 110.146 365.781 108.75C367.135 107.333 368.792 106.24 370.75 105.469C372.708 104.698 374.938 104.312 377.438 104.312ZM372.906 120.25C372.906 126.979 374.417 130.708 377.438 131.438C380.521 130.708 382.062 126.979 382.062 120.25C382.062 113.583 380.521 109.844 377.438 109.031C374.417 109.844 372.906 113.583 372.906 120.25ZM430.188 106.281H414.594C414.365 106.76 414.365 107.25 414.594 107.75C416.469 108.104 417.656 109.115 418.156 110.781L419.438 114.156L413.75 126.719H413.625L407.219 110.781C406.885 109.927 407.062 109.292 407.75 108.875C408.458 108.438 409.625 108.062 411.25 107.75C411.458 107.25 411.458 106.76 411.25 106.281H396.156C395.927 106.76 395.927 107.25 396.156 107.75C398.927 108.188 400.656 109.198 401.344 110.781L411.25 134.906H412.719L420.656 117.375L427.438 134.906H428.906L439.406 110.781C440.177 108.948 441.781 107.938 444.219 107.75C444.427 107.25 444.427 106.76 444.219 106.281H433.594C433.385 106.76 433.385 107.25 433.594 107.75C434.177 107.792 434.667 107.875 435.062 108C435.479 108.104 435.875 108.26 436.25 108.469C436.646 108.677 436.854 108.969 436.875 109.344C436.896 109.698 436.823 110.177 436.656 110.781L429.938 126.719H429.812L424.062 110.781C424.062 110.469 424 110.188 423.875 109.938C423.771 109.688 423.823 109.469 424.031 109.281C424.26 109.073 424.417 108.906 424.5 108.781C424.583 108.656 424.812 108.542 425.188 108.438C425.583 108.333 425.906 108.25 426.156 108.188C426.427 108.125 426.823 108.062 427.344 108C427.885 107.917 428.333 107.865 428.688 107.844C429.062 107.823 429.562 107.792 430.188 107.75C430.396 107.25 430.396 106.76 430.188 106.281ZM413.688 105.125H431.094C431.781 106.458 431.781 107.719 431.094 108.906C430.573 108.948 430.208 108.99 430 109.031C429.792 109.073 429.479 109.125 429.062 109.188C428.667 109.25 428.417 109.333 428.312 109.438C428.208 109.521 428.042 109.635 427.812 109.781C427.604 109.927 427.542 110.094 427.625 110.281C427.708 110.469 427.75 110.719 427.75 111.031L431.219 120.375L435.188 111.031C435.479 110.344 435.417 109.854 435 109.562C434.604 109.25 433.833 109.031 432.688 108.906C432 107.719 432 106.458 432.688 105.125H445.094C445.74 106.417 445.719 107.677 445.031 108.906C443.635 108.99 442.615 109.219 441.969 109.594C441.323 109.948 440.854 110.51 440.562 111.281L429.75 136.188H426.562L420.531 120.625L413.562 136.188H410.344L400.125 111.281C399.812 110.552 399.312 110.042 398.625 109.75C397.958 109.438 396.854 109.156 395.312 108.906C394.708 107.802 394.688 106.542 395.25 105.125H412.156C412.698 106.542 412.677 107.802 412.094 108.906C410.844 108.99 410.479 109.698 411 111.031L415.031 120.875L418.094 114.156L416.875 111.094C416.417 109.948 415.375 109.219 413.75 108.906C413.146 107.802 413.125 106.542 413.688 105.125ZM94.4375 174.688C96.7083 174.417 99.1042 174.281 101.625 174.281C104.396 174.281 106.875 174.719 109.062 175.594C111.271 176.469 113.052 177.594 114.406 178.969C115.781 180.323 116.906 181.927 117.781 183.781C118.656 185.635 119.26 187.479 119.594 189.312C119.948 191.125 120.125 192.99 120.125 194.906C120.125 201.219 118.354 206.271 114.812 210.062C111.271 213.854 106.167 215.75 99.5 215.75L94.375 215.688C94.1667 207.042 94.0625 200.583 94.0625 196.312C94.0625 188.583 94.1875 181.375 94.4375 174.688ZM101.156 219.281C94.1771 219.281 87.2083 219.365 80.25 219.531C79.7292 218.094 79.7292 216.75 80.25 215.5C84.7708 215.042 87.0521 214.427 87.0938 213.656C87.3438 207.115 87.4688 200.562 87.4688 194C87.4688 187.292 87.3646 181.49 87.1562 176.594C87.1146 175.823 84.7917 175.208 80.1875 174.75C79.8333 173.417 79.875 172.073 80.3125 170.719C82.875 170.76 90.8542 170.781 104.25 170.781C107.146 170.781 109.802 170.958 112.219 171.312C114.656 171.667 117.135 172.385 119.656 173.469C122.177 174.531 124.302 175.927 126.031 177.656C127.76 179.385 129.167 181.719 130.25 184.656C131.333 187.594 131.875 191.031 131.875 194.969C131.875 198.719 131.24 202.042 129.969 204.938C128.698 207.833 127.031 210.167 124.969 211.938C122.927 213.708 120.521 215.167 117.75 216.312C114.979 217.438 112.25 218.208 109.562 218.625C106.875 219.062 104.073 219.281 101.156 219.281ZM99.25 175.812C99 183.125 98.875 189.958 98.875 196.312C98.875 201.479 98.9583 207.531 99.125 214.469C105.688 214.302 110.615 212.458 113.906 208.938C117.198 205.417 118.844 200.74 118.844 194.906C118.844 192.635 118.573 190.469 118.031 188.406C117.49 186.323 116.625 184.302 115.438 182.344C114.25 180.385 112.51 178.802 110.219 177.594C107.948 176.365 105.271 175.708 102.188 175.625C101.167 175.625 100.188 175.688 99.25 175.812ZM81.125 218.188C85.6042 218.062 91.5417 218 98.9375 218C101.583 218 104.135 217.802 106.594 217.406C109.073 216.99 111.583 216.24 114.125 215.156C116.667 214.073 118.865 212.698 120.719 211.031C122.573 209.365 124.094 207.146 125.281 204.375C126.49 201.604 127.094 198.448 127.094 194.906C127.094 179.677 118.729 172.062 102 172.062C100.458 172.062 98.2708 172.094 95.4375 172.156C92.6042 172.219 90.0312 172.25 87.7188 172.25C85.4271 172.25 83.25 172.188 81.1875 172.062C81.0208 172.438 81.0208 172.927 81.1875 173.531C85.9792 173.99 88.3958 174.99 88.4375 176.531C88.6458 181.427 88.75 187.25 88.75 194C88.75 200.604 88.625 207.177 88.375 213.719C88.3333 215.26 85.9167 216.26 81.125 216.719C80.9167 217.198 80.9167 217.688 81.125 218.188ZM145.312 195.281C146.292 195.448 147.062 195.833 147.625 196.438C148.208 197.021 148.5 197.771 148.5 198.688C148.5 199.792 148.135 200.708 147.406 201.438C146.677 202.146 145.719 202.5 144.531 202.5C143.302 202.5 142.188 202.062 141.188 201.188C140.188 200.312 139.688 199.073 139.688 197.469C139.688 194.74 140.979 192.531 143.562 190.844C146.167 189.156 149.562 188.312 153.75 188.312C157.729 188.312 160.521 189.115 162.125 190.719C163.75 192.302 164.562 194.979 164.562 198.75V209.688L166.562 209.625C168.271 209.75 169.458 210.562 170.125 212.062L169.125 213.781C168.479 214.76 167.938 215.521 167.5 216.062C167.083 216.583 166.479 217.177 165.688 217.844C164.896 218.51 163.969 218.99 162.906 219.281C161.844 219.573 160.604 219.719 159.188 219.719C157.438 219.719 156.115 219.062 155.219 217.75C152.969 219.375 150.031 220.188 146.406 220.188C144.823 220.188 143.469 219.938 142.344 219.438C141.24 218.958 140.427 218.312 139.906 217.5C139.406 216.688 139.052 215.927 138.844 215.219C138.635 214.51 138.531 213.792 138.531 213.062C138.531 210 139.562 207.708 141.625 206.188C143.688 204.667 147.854 203.104 154.125 201.5V198.094C154.125 196.427 153.771 195.208 153.062 194.438C152.375 193.667 151.479 193.281 150.375 193.281C148.021 193.281 146.333 193.948 145.312 195.281ZM155.406 204.438V210.969C153.406 213.615 151.365 214.938 149.281 214.938C148.073 214.938 147.083 214.646 146.312 214.062C145.562 213.479 145.188 212.656 145.188 211.594C145.188 209.885 145.885 208.479 147.281 207.375C148.698 206.271 151.406 205.292 155.406 204.438ZM154.125 210.562V206.75C151.104 207.854 149.594 209.469 149.594 211.594C149.594 212.49 149.917 213.115 150.562 213.469C151.667 213.073 152.854 212.104 154.125 210.562ZM144.531 199.75C143.802 199.75 143.292 199.219 143 198.156C142.583 196.448 143.094 194.958 144.531 193.688C145.948 192.438 148.083 191.812 150.938 191.812C152.292 191.812 153.375 192.344 154.188 193.406C155 194.448 155.406 196.01 155.406 198.094V202.438C149.26 204.021 145.125 205.521 143 206.938C140.875 208.333 139.812 210.375 139.812 213.062C139.812 214.479 140.292 215.812 141.25 217.062C142.208 218.292 143.927 218.906 146.406 218.906C147.385 218.906 148.302 218.75 149.156 218.438C150.031 218.125 150.927 217.625 151.844 216.938C152.781 216.229 153.354 215.781 153.562 215.594C153.771 215.406 154.115 215.083 154.594 214.625C155.094 214.146 155.365 213.885 155.406 213.844C155.677 216.906 156.938 218.438 159.188 218.438C159.75 218.438 160.396 218.292 161.125 218C161.854 217.708 162.583 217.135 163.312 216.281C164.062 215.427 164.531 214.865 164.719 214.594C164.927 214.302 165.229 213.854 165.625 213.25C166.021 212.625 166.312 212.198 166.5 211.969C166.229 211.385 165.708 211.052 164.938 210.969C163.792 212.719 162.625 213.573 161.438 213.531C160.583 213.49 160.156 212.885 160.156 211.719V198.75C160.156 195.417 159.5 193.062 158.188 191.688C156.896 190.292 154.667 189.594 151.5 189.594C148.646 189.594 146.167 190.333 144.062 191.812C141.979 193.271 140.938 195.156 140.938 197.469C140.938 198.656 141.302 199.583 142.031 200.25C142.76 200.896 143.594 201.219 144.531 201.219C144.823 200.802 144.823 200.312 144.531 199.75ZM178.75 218.375C177.75 218.708 176.771 219.115 175.812 219.594C174.833 218.99 174.188 218.375 173.875 217.75C173.917 217.625 173.979 217.198 174.062 216.469C174.146 215.74 174.229 214.885 174.312 213.906C174.417 212.927 174.5 211.917 174.562 210.875C174.625 209.833 174.656 208.948 174.656 208.219C175.635 207.76 177.146 207.531 179.188 207.531C179.417 207.531 179.646 207.531 179.875 207.531C180.104 207.531 180.344 207.542 180.594 207.562C182.094 212.438 184.146 215.083 186.75 215.5C187.812 215.333 188.625 214.948 189.188 214.344C189.771 213.719 190.062 213.021 190.062 212.25C190.062 211.688 189.906 211.167 189.594 210.688C189.281 210.188 188.865 209.729 188.344 209.312C187.823 208.896 187.208 208.51 186.5 208.156C185.812 207.802 185.083 207.458 184.312 207.125C183.542 206.771 182.76 206.438 181.969 206.125C181.177 205.792 180.417 205.448 179.688 205.094C178.917 204.74 178.188 204.312 177.5 203.812C176.812 203.292 176.208 202.708 175.688 202.062C175.167 201.396 174.75 200.667 174.438 199.875C174.146 199.083 174 198.229 174 197.312C174 196.333 174.167 195.312 174.5 194.25C174.833 193.188 175.406 192.219 176.219 191.344C177.031 190.469 178.125 189.75 179.5 189.188C180.875 188.604 182.604 188.312 184.688 188.312C187 188.312 188.708 188.438 189.812 188.688L190.969 188.312H193.094C193.365 190.083 193.688 191.74 194.062 193.281C194.458 194.823 194.896 196.26 195.375 197.594C194.479 198.49 193.396 198.938 192.125 198.938C191.417 198.104 190.76 197.354 190.156 196.688C189.552 196 188.969 195.406 188.406 194.906C187.865 194.406 187.323 194 186.781 193.688C186.26 193.375 185.719 193.156 185.156 193.031C183.781 193.26 183.094 193.885 183.094 194.906C183.094 195.719 183.448 196.427 184.156 197.031C184.865 197.635 185.75 198.188 186.812 198.688C187.875 199.188 189.031 199.667 190.281 200.125C191.552 200.562 192.75 201.031 193.875 201.531C194.688 201.885 195.448 202.344 196.156 202.906C196.885 203.469 197.521 204.125 198.062 204.875C198.604 205.604 199.031 206.427 199.344 207.344C199.656 208.24 199.812 209.208 199.812 210.25C199.812 211.792 199.417 213.177 198.625 214.406C197.854 215.635 196.823 216.677 195.531 217.531C194.26 218.385 192.802 219.042 191.156 219.5C189.51 219.958 187.833 220.188 186.125 220.188C183.188 220.188 180.729 219.583 178.75 218.375ZM185.906 218.906C188.51 218.906 190.74 218.135 192.594 216.594C194.448 215.052 195.375 213.323 195.375 211.406C195.375 209.531 194.802 207.917 193.656 206.562C192.51 205.188 191.125 204.125 189.5 203.375C187.875 202.625 186.24 201.938 184.594 201.312C182.948 200.667 181.552 199.917 180.406 199.062C179.26 198.208 178.688 197.208 178.688 196.062C178.688 194.604 179.229 193.5 180.312 192.75C181.396 192 182.667 191.625 184.125 191.625C185.667 191.625 187.042 192.104 188.25 193.062C189.458 194.021 190.938 195.552 192.688 197.656C193.25 197.656 193.656 197.521 193.906 197.25C193.135 195.042 191.99 193.219 190.469 191.781C188.969 190.323 187.042 189.594 184.688 189.594C181.333 189.594 178.927 190.396 177.469 192C176.01 193.583 175.281 195.354 175.281 197.312C175.281 198.979 175.833 200.406 176.938 201.594C178.062 202.76 179.406 203.667 180.969 204.312C182.552 204.938 184.125 205.562 185.688 206.188C187.25 206.812 188.583 207.625 189.688 208.625C190.792 209.625 191.344 210.833 191.344 212.25C191.344 213.438 190.833 214.5 189.812 215.438C188.792 216.375 187.365 216.844 185.531 216.844C183.323 216.844 181.615 216.146 180.406 214.75C179.219 213.333 178.219 211.365 177.406 208.844C176.677 208.844 176.188 208.906 175.938 209.031C175.938 210.531 175.865 212.25 175.719 214.188C175.573 216.125 175.427 217.271 175.281 217.625C175.427 217.833 175.625 218.021 175.875 218.188C176.729 217.583 177.385 216.948 177.844 216.281C179.677 217.302 181.104 217.99 182.125 218.344C183.167 218.719 184.427 218.906 185.906 218.906ZM225.281 216.562C225.031 217.042 225.031 217.552 225.281 218.094C230.698 217.969 236.115 217.969 241.531 218.094C241.844 217.594 241.844 217.083 241.531 216.562C236.469 216.312 233.917 215.312 233.875 213.562L233.531 197.844C233.448 194.99 232.99 192.906 232.156 191.594C231.323 190.26 229.885 189.594 227.844 189.594C224.385 189.594 220.271 191.979 215.5 196.75V171.219C215.333 170.885 214.969 170.604 214.406 170.375C211.51 171.75 208.5 172.604 205.375 172.938C205.25 173.458 205.25 173.948 205.375 174.406C207.771 174.531 209.542 174.958 210.688 175.688V213.562C210.646 215.104 208.854 216.104 205.312 216.562C205.062 217.042 205.062 217.552 205.312 218.094C210.771 217.885 216.208 217.885 221.625 218.094C221.896 217.552 221.896 217.042 221.625 216.562C217.75 216.146 215.792 215.146 215.75 213.562C215.583 209.125 215.5 204.188 215.5 198.75C219.667 195.062 222.948 193.219 225.344 193.219C227.615 193.219 228.75 195.104 228.75 198.875L228.688 213.562C228.688 214.583 228.375 215.302 227.75 215.719C227.125 216.115 226.302 216.396 225.281 216.562ZM224.25 219.188C223.75 217.958 223.75 216.698 224.25 215.406C224.938 215.406 225.635 215.229 226.344 214.875C227.052 214.5 227.406 214.062 227.406 213.562L227.469 198.875C227.469 196.604 227.021 195.219 226.125 194.719C224.583 195.094 222.51 196.219 219.906 198.094C219.906 203.719 219.99 208.854 220.156 213.5C220.24 214.604 221.073 215.24 222.656 215.406C223.177 216.698 223.177 217.958 222.656 219.188C216.552 218.979 210.406 218.979 204.219 219.188C203.719 217.958 203.719 216.698 204.219 215.406C207.635 214.948 209.365 214.312 209.406 213.5V176.469C208.01 176.031 206.281 175.75 204.219 175.625C203.76 174.396 203.76 173.073 204.219 171.656C207.385 171.49 210.927 170.552 214.844 168.844C217.115 169.01 218.802 169.698 219.906 170.906V191.25C222.844 189.292 226.24 188.312 230.094 188.312C232.906 188.312 234.906 189.083 236.094 190.625C237.302 192.146 237.927 194.552 237.969 197.844C238.052 206.01 238.156 211.25 238.281 213.562C238.323 214.417 239.792 215.031 242.688 215.406C243.167 216.781 243.125 218.042 242.562 219.188C236.458 219.062 230.354 219.062 224.25 219.188ZM263.281 193.688C265.76 193.688 267.635 194.688 268.906 196.688C270.198 198.688 270.844 201.229 270.844 204.312C270.844 208.833 270.042 212.052 268.438 213.969C266.833 215.885 265.094 216.844 263.219 216.844C259.865 216.844 257.375 215.604 255.75 213.125C255.667 208.958 255.625 203.5 255.625 196.75C258 194.708 260.552 193.688 263.281 193.688ZM244.875 173.062C244.771 173.708 244.771 174.198 244.875 174.531C247.688 174.677 249.688 175.104 250.875 175.812C251.042 191.354 251.042 204.396 250.875 214.938C254.042 217.583 257.802 218.906 262.156 218.906C264.615 218.906 266.781 218.417 268.656 217.438C270.552 216.438 272.031 215.146 273.094 213.562C274.156 211.958 274.948 210.25 275.469 208.438C276.01 206.625 276.281 204.76 276.281 202.844C276.281 198.781 275.354 195.562 273.5 193.188C271.646 190.792 269.25 189.594 266.312 189.594C262.688 189.594 259.125 191.167 255.625 194.312V171.344C255.438 171.01 255.073 170.729 254.531 170.5C251.76 171.833 248.542 172.688 244.875 173.062ZM254.969 168.969C257.24 169.135 258.927 169.823 260.031 171.031V189.969C262.198 188.865 265.031 188.312 268.531 188.312C272.115 188.312 275.031 189.625 277.281 192.25C279.552 194.875 280.688 198.406 280.688 202.844C280.688 204.927 280.385 206.948 279.781 208.906C279.198 210.865 278.281 212.708 277.031 214.438C275.802 216.167 274.094 217.552 271.906 218.594C269.74 219.656 267.229 220.188 264.375 220.188C258.312 220.188 253.385 218.625 249.594 215.5C249.844 202.792 249.844 189.823 249.594 176.594C248.24 176.156 246.344 175.875 243.906 175.75C243.427 174.396 243.448 173.094 243.969 171.844C247.677 171.51 251.344 170.552 254.969 168.969ZM269.562 204.312C269.562 201.875 269.115 199.792 268.219 198.062C267.323 196.333 266 195.344 264.25 195.094C262.792 195.302 261.385 196.021 260.031 197.25C260.031 203.542 260.073 208.729 260.156 212.812C261.094 214.354 262.438 215.25 264.188 215.5C265.646 215.167 266.906 214.115 267.969 212.344C269.031 210.573 269.562 207.896 269.562 204.312ZM301.344 191.625C303.49 191.625 305.188 192.656 306.438 194.719C307.708 196.76 308.344 199.938 308.344 204.25C308.344 208.562 307.708 211.74 306.438 213.781C305.188 215.823 303.49 216.844 301.344 216.844C300.156 216.844 299.073 216.594 298.094 216.094C297.135 215.594 296.312 214.823 295.625 213.781C294.958 212.74 294.438 211.438 294.062 209.875C293.688 208.292 293.5 206.417 293.5 204.25C293.5 202.104 293.688 200.24 294.062 198.656C294.438 197.052 294.958 195.74 295.625 194.719C296.312 193.677 297.135 192.906 298.094 192.406C299.073 191.885 300.156 191.625 301.344 191.625ZM301.344 218.906C303.281 218.906 305.021 218.542 306.562 217.812C308.104 217.083 309.417 216.073 310.5 214.781C311.604 213.469 312.448 211.917 313.031 210.125C313.615 208.333 313.906 206.375 313.906 204.25C313.906 202.125 313.615 200.167 313.031 198.375C312.448 196.583 311.604 195.042 310.5 193.75C309.417 192.438 308.104 191.417 306.562 190.688C305.021 189.958 303.281 189.594 301.344 189.594C299.281 189.594 297.417 189.958 295.75 190.688C294.083 191.417 292.667 192.427 291.5 193.719C290.354 195.01 289.469 196.562 288.844 198.375C288.219 200.167 287.906 202.125 287.906 204.25C287.906 206.396 288.219 208.365 288.844 210.156C289.469 211.948 290.354 213.5 291.5 214.812C292.667 216.104 294.083 217.115 295.75 217.844C297.417 218.552 299.281 218.906 301.344 218.906ZM302.438 188.312C304.958 188.312 307.198 188.698 309.156 189.469C311.135 190.24 312.802 191.333 314.156 192.75C315.51 194.146 316.542 195.823 317.25 197.781C317.958 199.74 318.312 201.896 318.312 204.25C318.312 206.583 317.958 208.729 317.25 210.688C316.542 212.646 315.51 214.333 314.156 215.75C312.823 217.146 311.167 218.229 309.188 219C307.208 219.792 304.958 220.188 302.438 220.188C299.938 220.188 297.698 219.792 295.719 219C293.76 218.229 292.104 217.146 290.75 215.75C289.417 214.333 288.396 212.656 287.688 210.719C286.979 208.76 286.625 206.604 286.625 204.25C286.625 201.896 286.979 199.74 287.688 197.781C288.396 195.823 289.427 194.146 290.781 192.75C292.135 191.333 293.792 190.24 295.75 189.469C297.708 188.698 299.938 188.312 302.438 188.312ZM297.906 204.25C297.906 210.979 299.417 214.708 302.438 215.438C305.521 214.708 307.062 210.979 307.062 204.25C307.062 197.583 305.521 193.844 302.438 193.031C299.417 193.844 297.906 197.583 297.906 204.25ZM331.625 195.281C332.604 195.448 333.375 195.833 333.938 196.438C334.521 197.021 334.812 197.771 334.812 198.688C334.812 199.792 334.448 200.708 333.719 201.438C332.99 202.146 332.031 202.5 330.844 202.5C329.615 202.5 328.5 202.062 327.5 201.188C326.5 200.312 326 199.073 326 197.469C326 194.74 327.292 192.531 329.875 190.844C332.479 189.156 335.875 188.312 340.062 188.312C344.042 188.312 346.833 189.115 348.438 190.719C350.062 192.302 350.875 194.979 350.875 198.75V209.688L352.875 209.625C354.583 209.75 355.771 210.562 356.438 212.062L355.438 213.781C354.792 214.76 354.25 215.521 353.812 216.062C353.396 216.583 352.792 217.177 352 217.844C351.208 218.51 350.281 218.99 349.219 219.281C348.156 219.573 346.917 219.719 345.5 219.719C343.75 219.719 342.427 219.062 341.531 217.75C339.281 219.375 336.344 220.188 332.719 220.188C331.135 220.188 329.781 219.938 328.656 219.438C327.552 218.958 326.74 218.312 326.219 217.5C325.719 216.688 325.365 215.927 325.156 215.219C324.948 214.51 324.844 213.792 324.844 213.062C324.844 210 325.875 207.708 327.938 206.188C330 204.667 334.167 203.104 340.438 201.5V198.094C340.438 196.427 340.083 195.208 339.375 194.438C338.688 193.667 337.792 193.281 336.688 193.281C334.333 193.281 332.646 193.948 331.625 195.281ZM341.719 204.438V210.969C339.719 213.615 337.677 214.938 335.594 214.938C334.385 214.938 333.396 214.646 332.625 214.062C331.875 213.479 331.5 212.656 331.5 211.594C331.5 209.885 332.198 208.479 333.594 207.375C335.01 206.271 337.719 205.292 341.719 204.438ZM340.438 210.562V206.75C337.417 207.854 335.906 209.469 335.906 211.594C335.906 212.49 336.229 213.115 336.875 213.469C337.979 213.073 339.167 212.104 340.438 210.562ZM330.844 199.75C330.115 199.75 329.604 199.219 329.312 198.156C328.896 196.448 329.406 194.958 330.844 193.688C332.26 192.438 334.396 191.812 337.25 191.812C338.604 191.812 339.688 192.344 340.5 193.406C341.312 194.448 341.719 196.01 341.719 198.094V202.438C335.573 204.021 331.438 205.521 329.312 206.938C327.188 208.333 326.125 210.375 326.125 213.062C326.125 214.479 326.604 215.812 327.562 217.062C328.521 218.292 330.24 218.906 332.719 218.906C333.698 218.906 334.615 218.75 335.469 218.438C336.344 218.125 337.24 217.625 338.156 216.938C339.094 216.229 339.667 215.781 339.875 215.594C340.083 215.406 340.427 215.083 340.906 214.625C341.406 214.146 341.677 213.885 341.719 213.844C341.99 216.906 343.25 218.438 345.5 218.438C346.062 218.438 346.708 218.292 347.438 218C348.167 217.708 348.896 217.135 349.625 216.281C350.375 215.427 350.844 214.865 351.031 214.594C351.24 214.302 351.542 213.854 351.938 213.25C352.333 212.625 352.625 212.198 352.812 211.969C352.542 211.385 352.021 211.052 351.25 210.969C350.104 212.719 348.938 213.573 347.75 213.531C346.896 213.49 346.469 212.885 346.469 211.719V198.75C346.469 195.417 345.812 193.062 344.5 191.688C343.208 190.292 340.979 189.594 337.812 189.594C334.958 189.594 332.479 190.333 330.375 191.812C328.292 193.271 327.25 195.156 327.25 197.469C327.25 198.656 327.615 199.583 328.344 200.25C329.073 200.896 329.906 201.219 330.844 201.219C331.135 200.802 331.135 200.312 330.844 199.75ZM371.125 200.406C371.646 198.49 372.719 196.625 374.344 194.812C375.969 193 377.625 192.094 379.312 192.094C381.292 192.094 382.281 192.729 382.281 194C382.281 195.146 381.74 195.875 380.656 196.188C380.365 196.604 380.365 197.094 380.656 197.656C381.781 197.656 382.698 197.312 383.406 196.625C384.135 195.938 384.5 194.979 384.5 193.75C384.5 192.458 384.104 191.448 383.312 190.719C382.542 189.969 381.531 189.594 380.281 189.594C378.656 189.594 377.021 190.25 375.375 191.562C373.75 192.854 372.333 194.302 371.125 195.906V190.531C370.958 190.198 370.604 189.927 370.062 189.719C367.271 191.031 364.042 191.885 360.375 192.281C360.25 192.781 360.25 193.271 360.375 193.75C363.188 193.875 365.198 194.302 366.406 195.031C366.573 202.802 366.552 209.031 366.344 213.719C366.302 215.26 364.531 216.26 361.031 216.719C360.719 217.281 360.719 217.771 361.031 218.188C366.49 217.938 372.438 217.938 378.875 218.188C379.167 217.771 379.167 217.281 378.875 216.719C373.938 216.26 371.448 215.26 371.406 213.719C371.219 209.49 371.125 205.052 371.125 200.406ZM375.812 213.656C375.854 214.469 377.26 215.104 380.031 215.562C380.719 216.938 380.677 218.26 379.906 219.531C371.073 219.24 364.396 219.177 359.875 219.344C359.104 218.115 359.062 216.854 359.75 215.562C363.25 215.104 365.021 214.469 365.062 213.656C365.312 207.719 365.333 201.76 365.125 195.781C363.75 195.365 361.854 195.094 359.438 194.969C358.958 193.719 358.958 192.396 359.438 191C362.917 190.792 366.604 189.854 370.5 188.188C372.75 188.438 374.438 189.115 375.562 190.219C377.312 188.948 378.885 188.312 380.281 188.312C381.906 188.312 383.229 188.792 384.25 189.75C385.271 190.708 385.781 192.042 385.781 193.75C385.781 195.375 385.302 196.646 384.344 197.562C383.385 198.479 382.156 198.938 380.656 198.938C379.26 198.938 378.094 198.469 377.156 197.531C376.302 198.677 375.771 199.719 375.562 200.656C375.562 205.177 375.646 209.51 375.812 213.656ZM406.688 214.812C404.208 214.812 402.323 213.812 401.031 211.812C399.76 209.792 399.125 207.25 399.125 204.188C399.125 201.708 399.375 199.583 399.875 197.812C400.396 196.042 401.073 194.74 401.906 193.906C402.74 193.073 403.552 192.49 404.344 192.156C405.135 191.802 405.938 191.625 406.75 191.625C409.688 191.625 411.885 192.865 413.344 195.344V199.875C413.344 205.562 413.323 209.427 413.281 211.469C410.969 213.698 408.771 214.812 406.688 214.812ZM427.094 215.5C427.781 216.875 427.74 218.198 426.969 219.469C421.635 219.302 417.156 219.302 413.531 219.469C412.76 219.135 412.271 218.708 412.062 218.188C410.042 219.521 407.24 220.188 403.656 220.188C400.115 220.188 397.24 218.865 395.031 216.219C392.844 213.573 391.75 209.969 391.75 205.406C391.75 203.385 392.052 201.417 392.656 199.5C393.26 197.583 394.167 195.771 395.375 194.062C396.583 192.354 398.26 190.969 400.406 189.906C402.573 188.844 405.042 188.312 407.812 188.312C409.708 188.312 411.125 188.354 412.062 188.438C412.021 185.146 412 181.198 412 176.594C410.625 176.156 408.719 175.875 406.281 175.75C405.823 174.521 405.823 173.198 406.281 171.781C409.198 171.531 412.896 170.594 417.375 168.969C419.625 169.135 421.302 169.823 422.406 171.031C422.406 194.802 422.5 209.01 422.688 213.656C422.729 214.552 424.198 215.167 427.094 215.5ZM412.062 195.656C411.021 194.177 409.656 193.302 407.969 193.031C406.51 193.344 405.26 194.354 404.219 196.062C403.177 197.75 402.656 200.458 402.656 204.188C402.656 206.604 403.073 208.656 403.906 210.344C404.76 212.031 406.042 213.052 407.75 213.406C409.125 213.094 410.542 212.281 412 210.969C412.042 208.906 412.062 205.208 412.062 199.875V195.656ZM425.938 216.656C424.875 216.573 424.062 216.49 423.5 216.406C422.958 216.323 422.188 216.177 421.188 215.969C420.208 215.74 419.469 215.448 418.969 215.094C418.49 214.719 418.25 214.26 418.25 213.719C418.083 209.073 418 194.948 418 171.344C417.792 170.969 417.427 170.688 416.906 170.5C414.135 171.833 410.917 172.688 407.25 173.062C407.125 173.583 407.125 174.073 407.25 174.531C410.062 174.677 412.073 175.104 413.281 175.812C413.281 181.708 413.302 186.635 413.344 190.594C411.198 189.927 409.354 189.594 407.812 189.594C405.354 189.594 403.177 190.083 401.281 191.062C399.406 192.042 397.938 193.333 396.875 194.938C395.812 196.521 395.01 198.198 394.469 199.969C393.948 201.74 393.688 203.552 393.688 205.406C393.688 209.573 394.615 212.865 396.469 215.281C398.323 217.698 400.552 218.906 403.156 218.906C406.448 218.906 409.792 217.219 413.188 213.844C413.188 215.594 413.146 216.719 413.062 217.219C413.292 217.698 413.552 218.021 413.844 218.188C414.531 218.146 415.208 218.104 415.875 218.062C416.562 218.021 417.104 217.99 417.5 217.969C417.917 217.948 418.281 217.938 418.594 217.938C419.74 217.938 422.188 218 425.938 218.125C426.229 217.708 426.229 217.219 425.938 216.656Z" fill="#909090"/>
</svg>
